<svg width="169" height="169" viewBox="0 0 169 169" fill="none" xmlns="http://www.w3.org/2000/svg">
<path d="M112.667 126.75C116.402 126.75 119.984 128.234 122.625 130.875C125.266 133.516 126.75 137.098 126.75 140.833C126.75 144.568 125.266 148.151 122.625 150.792C119.984 153.433 116.402 154.917 112.667 154.917C108.931 154.917 105.349 153.433 102.708 150.792C100.067 148.151 98.5833 144.568 98.5833 140.833C98.5833 137.098 100.067 133.516 102.708 130.875C105.349 128.234 108.931 126.75 112.667 126.75ZM112.667 133.792C110.799 133.792 109.008 134.534 107.687 135.854C106.367 137.175 105.625 138.966 105.625 140.833C105.625 142.701 106.367 144.492 107.687 145.813C109.008 147.133 110.799 147.875 112.667 147.875C114.534 147.875 116.325 147.133 117.646 145.813C118.966 144.492 119.708 142.701 119.708 140.833C119.708 138.966 118.966 137.175 117.646 135.854C116.325 134.534 114.534 133.792 112.667 133.792ZM49.2916 126.75C53.0268 126.75 56.6089 128.234 59.25 130.875C61.8912 133.516 63.375 137.098 63.375 140.833C63.375 144.568 61.8912 148.151 59.25 150.792C56.6089 153.433 53.0268 154.917 49.2916 154.917C45.5565 154.917 41.9743 153.433 39.3332 150.792C36.6921 148.151 35.2083 144.568 35.2083 140.833C35.2083 137.098 36.6921 133.516 39.3332 130.875C41.9743 128.234 45.5565 126.75 49.2916 126.75ZM49.2916 133.792C47.4241 133.792 45.633 134.534 44.3124 135.854C42.9919 137.175 42.25 138.966 42.25 140.833C42.25 142.701 42.9919 144.492 44.3124 145.813C45.633 147.133 47.4241 147.875 49.2916 147.875C51.1592 147.875 52.9503 147.133 54.2708 145.813C55.5914 144.492 56.3333 142.701 56.3333 140.833C56.3333 138.966 55.5914 137.175 54.2708 135.854C52.9503 134.534 51.1592 133.792 49.2916 133.792ZM126.75 42.25H30.089L48.0241 84.5H105.625C106.72 84.5017 107.8 84.2464 108.778 83.7548C109.757 83.2632 110.606 82.5488 111.258 81.6693L132.383 53.5026H132.39C133.171 52.4559 133.646 51.2126 133.761 49.9118C133.876 48.6109 133.627 47.3037 133.042 46.1362C132.456 44.9688 131.558 43.987 130.447 43.3007C129.336 42.6144 128.056 42.2506 126.75 42.25ZM105.625 91.5417H48.348L42.9541 102.527L42.25 105.625C42.25 107.493 42.9919 109.284 44.3124 110.604C45.633 111.925 47.4241 112.667 49.2916 112.667H126.75V119.708H49.2916C46.8395 119.71 44.4295 119.07 42.3002 117.854C40.1709 116.638 38.396 114.887 37.1511 112.774C35.9063 110.662 35.2346 108.261 35.2027 105.809C35.1707 103.357 35.7794 100.939 36.9687 98.7946L42.0387 88.4152L16.4634 28.1667H7.04163V21.125H21.125L27.1033 35.2083H126.75C129.411 35.2086 132.017 35.9627 134.267 37.3832C136.517 38.8037 138.319 40.8326 139.463 43.2348C140.607 45.637 141.048 48.3143 140.733 50.9565C140.419 53.5987 139.362 56.0978 137.686 58.1642L117.166 85.5281C115.869 87.3857 114.142 88.9025 112.133 89.9495C110.123 90.9965 107.891 91.5427 105.625 91.5417Z" fill="black"/>
</svg>
