<svg width="48" height="45" viewBox="0 0 228 228" fill="none" xmlns="http://www.w3.org/2000/svg">
<path d="M106.406 14.7589H120.594V50.2277H106.406V14.7589Z" fill="black"/>
<path d="M153.842 63.7058L178.713 38.828L188.743 48.8657L163.873 73.7364L153.842 63.7058Z" fill="black"/>
<path d="M177.344 106.978H212.812V121.165H177.344V106.978Z" fill="black"/>
<path d="M153.842 164.437L163.873 154.406L188.743 179.277L178.713 189.315L153.842 164.437Z" fill="black"/>
<path d="M106.406 177.915H120.594V213.384H106.406V177.915Z" fill="black"/>
<path d="M38.2637 179.277L63.1344 154.406L73.1649 164.444L48.2942 189.315L38.2637 179.277Z" fill="black"/>
<path d="M14.1875 106.978H49.6562V121.165H14.1875V106.978Z" fill="black"/>
<path d="M38.2637 48.8657L48.2942 38.828L73.1649 63.7058L63.1344 73.7364L38.2637 48.8657Z" fill="black"/>
<path d="M113.5 71.5089C105.082 71.5089 96.8529 74.0052 89.8536 78.682C82.8542 83.3588 77.3989 90.0062 74.1774 97.7835C70.9559 105.561 70.1131 114.119 71.7553 122.375C73.3976 130.631 77.4513 138.215 83.4038 144.168C89.3563 150.12 96.9402 154.174 105.196 155.816C113.453 157.458 122.011 156.616 129.788 153.394C137.565 150.173 144.213 144.717 148.889 137.718C153.566 130.719 156.063 122.489 156.063 114.071C156.063 102.783 151.578 91.9572 143.596 83.9752C135.614 75.9932 124.788 71.5089 113.5 71.5089Z" fill="black"/>
</svg>
