<svg width="140" height="140" viewBox="0 0 140 140" fill="none" xmlns="http://www.w3.org/2000/svg">
<path d="M25.8475 74.795L101.681 127.295C102.556 127.901 103.58 128.255 104.642 128.32C105.705 128.386 106.764 128.159 107.707 127.665C108.65 127.171 109.439 126.429 109.99 125.519C110.541 124.608 110.833 123.564 110.833 122.5V17.5C110.834 16.4353 110.543 15.3907 109.993 14.4794C109.442 13.5681 108.653 12.8249 107.71 12.3303C106.767 11.8358 105.707 11.6087 104.644 11.6737C103.581 11.7387 102.556 12.0933 101.681 12.6992L25.8475 65.1992C25.0749 65.7383 24.444 66.4561 24.0083 67.2914C23.5727 68.1268 23.3452 69.055 23.3452 69.9971C23.3452 70.9392 23.5727 71.8674 24.0083 72.7027C24.444 73.538 25.0749 74.2558 25.8475 74.795Z" fill="black"/>
</svg>
