<svg width="227" height="227" viewBox="0 0 227 227" fill="none" xmlns="http://www.w3.org/2000/svg">
<path d="M106.406 14.1875H120.594V49.6562H106.406V14.1875Z" fill="black"/>
<path d="M153.842 63.1344L178.713 38.2566L188.743 48.2942L163.873 73.1649L153.842 63.1344Z" fill="black"/>
<path d="M177.344 106.406H212.812V120.594H177.344V106.406Z" fill="black"/>
<path d="M153.842 163.866L163.873 153.835L188.743 178.706L178.713 188.743L153.842 163.866Z" fill="black"/>
<path d="M106.406 177.344H120.594V212.812H106.406V177.344Z" fill="black"/>
<path d="M38.2638 178.706L63.1345 153.835L73.165 163.873L48.2943 188.743L38.2638 178.706Z" fill="black"/>
<path d="M14.1875 106.406H49.6562V120.594H14.1875V106.406Z" fill="black"/>
<path d="M38.2638 48.2942L48.2943 38.2566L73.165 63.1344L63.1345 73.1649L38.2638 48.2942Z" fill="black"/>
<path d="M113.5 85.125C119.112 85.125 124.598 86.7892 129.264 89.9071C133.931 93.0249 137.567 97.4565 139.715 102.641C141.863 107.826 142.425 113.531 141.33 119.036C140.235 124.54 137.532 129.596 133.564 133.564C129.596 137.532 124.54 140.235 119.036 141.33C113.531 142.425 107.826 141.863 102.641 139.715C97.4565 137.567 93.025 133.931 89.9071 129.264C86.7892 124.598 85.125 119.112 85.125 113.5C85.1344 105.977 88.1269 98.7655 93.4462 93.4462C98.7655 88.1269 105.977 85.1344 113.5 85.125ZM113.5 70.9375C105.082 70.9375 96.8529 73.4338 89.8536 78.1106C82.8542 82.7874 77.3989 89.4348 74.1774 97.212C70.9559 104.989 70.1131 113.547 71.7553 121.804C73.3976 130.06 77.4513 137.644 83.4038 143.596C89.3563 149.549 96.9402 153.602 105.196 155.245C113.453 156.887 122.011 156.044 129.788 152.823C137.565 149.601 144.213 144.146 148.889 137.146C153.566 130.147 156.063 121.918 156.063 113.5C156.063 102.212 151.578 91.3858 143.596 83.4038C135.614 75.4218 124.788 70.9375 113.5 70.9375Z" fill="black"/>
</svg>
