<svg width="140" height="140" viewBox="0 0 140 140" fill="none" xmlns="http://www.w3.org/2000/svg">
<path d="M32.2934 127.668C33.237 128.159 34.2965 128.384 35.3581 128.318C36.4197 128.252 37.4434 127.899 38.3192 127.295L114.153 74.795C114.927 74.2582 115.561 73.5415 115.998 72.7064C116.435 71.8713 116.664 70.9427 116.664 70C116.664 69.0573 116.435 68.1287 115.998 67.2936C115.561 66.4585 114.927 65.7419 114.153 65.205L38.3192 12.705C37.444 12.0995 36.4199 11.7449 35.3577 11.6796C34.2955 11.6144 33.2356 11.8409 32.2929 12.3348C31.3503 12.8287 30.5606 13.571 30.0096 14.4815C29.4585 15.3919 29.167 16.4358 29.1667 17.5V122.5C29.1665 123.565 29.4578 124.609 30.0089 125.52C30.5601 126.431 31.3501 127.174 32.2934 127.668Z" fill="black"/>
</svg>
